<svg width="1400" height="620" viewBox="0 0 1400 620" fill="none" xmlns="http://www.w3.org/2000/svg"><rect width="1400" height="620" rx="28" fill="#F8FAFC"/><text x="60" y="70" fill="#0F172A" font-family="Arial" font-size="40" font-weight="900">Architecture</text><text x="60" y="108" fill="#475569" font-family="Arial" font-size="20">AIはdry-runと資料生成だけ。実投稿はCLIの--executeゲートに集約。</text><rect x="70" y="190" width="250" height="110" rx="20" fill="#2563EB"/><text x="195" y="238" text-anchor="middle" fill="white" font-family="Arial" font-size="23" font-weight="800">Operator</text><text x="195" y="270" text-anchor="middle" fill="#DBEAFE" font-family="Arial" font-size="16">GitHub UI / CLI</text><rect x="70" y="360" width="250" height="110" rx="20" fill="#06B6D4"/><text x="195" y="408" text-anchor="middle" fill="white" font-family="Arial" font-size="23" font-weight="800">AI Agent</text><text x="195" y="440" text-anchor="middle" fill="#CFFAFE" font-family="Arial" font-size="16">Codex / Claude</text><rect x="500" y="260" width="330" height="140" rx="24" fill="#22C55E"/><text x="665" y="312" text-anchor="middle" fill="white" font-family="Arial" font-size="28" font-weight="900">CLI</text><text x="665" y="347" text-anchor="middle" fill="#DCFCE7" font-family="Arial" font-size="17">load / validate / dry-run / execute</text><rect x="530" y="470" width="270" height="80" rx="18" fill="#F59E0B"/><text x="665" y="503" text-anchor="middle" fill="white" font-family="Arial" font-size="21" font-weight="800">Secrets</text><text x="665" y="530" text-anchor="middle" fill="#FEF3C7" font-family="Arial" font-size="15">.env / GitHub Secrets</text><rect x="1030" y="185" width="290" height="120" rx="22" fill="#EF4444"/><text x="1175" y="235" text-anchor="middle" fill="white" font-family="Arial" font-size="24" font-weight="900">Threads API</text><text x="1175" y="266" text-anchor="middle" fill="#FEE2E2" font-family="Arial" font-size="15">/threads → /threads_publish</text><rect x="1030" y="375" width="290" height="120" rx="22" fill="#6366F1"/><text x="1175" y="425" text-anchor="middle" fill="white" font-family="Arial" font-size="24" font-weight="900">Artifacts</text><text x="1175" y="456" text-anchor="middle" fill="#E0E7FF" font-family="Arial" font-size="15">JSON logs + PPTX deck</text><path d="M330 245 H490" stroke="#64748B" stroke-width="5" stroke-linecap="round"/><path d="M330 415 C405 415 425 330 490 330" stroke="#64748B" stroke-width="5" stroke-linecap="round"/><path d="M840 330 H1020" stroke="#64748B" stroke-width="5" stroke-linecap="round"/><path d="M665 460 V410" stroke="#64748B" stroke-width="5" stroke-linecap="round"/><path d="M840 380 C930 380 940 435 1020 435" stroke="#64748B" stroke-width="5" stroke-linecap="round"/></svg>
