<svg width="1400" height="560" viewBox="0 0 1400 560" fill="none" xmlns="http://www.w3.org/2000/svg"><defs><linearGradient id="bg" x1="0" y1="0" x2="1400" y2="560"><stop stop-color="#0B1020"/><stop offset="1" stop-color="#1E1B4B"/></linearGradient></defs><rect width="1400" height="560" rx="34" fill="url(#bg)"/><text x="70" y="82" fill="#FFFFFF" font-family="Arial" font-size="42" font-weight="800">Threads Auto Poster CLI</text><text x="72" y="124" fill="#CBD5E1" font-family="Arial" font-size="22">READMEを開いた瞬間にわかる、AI安全設計・投稿フロー・Keynote資料生成</text><rect x="70" y="178" width="250" height="116" rx="22" fill="#2563EB"/><text x="195" y="225" text-anchor="middle" fill="white" font-family="Arial" font-size="24" font-weight="800">Operator</text><text x="195" y="260" text-anchor="middle" fill="#DBEAFE" font-family="Arial" font-size="16">GitHub UI / CLI</text><rect x="70" y="340" width="250" height="116" rx="22" fill="#0891B2"/><text x="195" y="386" text-anchor="middle" fill="white" font-family="Arial" font-size="24" font-weight="800">AI Agent</text><text x="195" y="421" text-anchor="middle" fill="#CFFAFE" font-family="Arial" font-size="16">dry-run / test / deck only</text><rect x="488" y="235" width="330" height="150" rx="26" fill="#22C55E"/><text x="653" y="290" text-anchor="middle" fill="white" font-family="Arial" font-size="28" font-weight="900">CLI Core</text><text x="653" y="326" text-anchor="middle" fill="#DCFCE7" font-family="Arial" font-size="18">validate → plan → execute</text><text x="653" y="354" text-anchor="middle" fill="#DCFCE7" font-family="Arial" font-size="16">default: dry-run</text><rect x="1010" y="178" width="300" height="116" rx="22" fill="#F59E0B"/><text x="1160" y="224" text-anchor="middle" fill="white" font-family="Arial" font-size="24" font-weight="800">Threads API</text><text x="1160" y="260" text-anchor="middle" fill="#FEF3C7" font-family="Arial" font-size="16">--execute時だけ接続</text><rect x="1010" y="340" width="300" height="116" rx="22" fill="#EF4444"/><text x="1160" y="386" text-anchor="middle" fill="white" font-family="Arial" font-size="24" font-weight="800">Secrets</text><text x="1160" y="421" text-anchor="middle" fill="#FEE2E2" font-family="Arial" font-size="16">GitHub Secrets / .env</text><path d="M330 236 C392 236 416 296 478 296" stroke="#CBD5E1" stroke-width="5" stroke-linecap="round"/><path d="M330 398 C390 398 416 333 478 333" stroke="#CBD5E1" stroke-width="5" stroke-linecap="round"/><path d="M828 300 C900 300 925 236 1000 236" stroke="#CBD5E1" stroke-width="5" stroke-linecap="round"/><path d="M1000 398 C920 398 900 350 828 350" stroke="#CBD5E1" stroke-width="5" stroke-linecap="round"/><rect x="430" y="438" width="470" height="54" rx="27" fill="#FFFFFF" opacity="0.1"/><text x="665" y="473" text-anchor="middle" fill="#E2E8F0" font-family="Arial" font-size="18" font-weight="700">Keynote-compatible PPTX is generated in CI artifacts</text></svg>
